<svg version="1.1" xmlns="http://www.w3.org/2000/svg" xmlns:xlink="http://www.w3.org/1999/xlink" width="512" height="512" viewBox="0,0,256,256"><g fill="#b5cad4" fill-rule="nonzero" stroke="none" stroke-width="1" stroke-linecap="butt" stroke-linejoin="miter" stroke-miterlimit="10" stroke-dasharray="" stroke-dashoffset="0" font-family="none" font-weight="none" font-size="none" text-anchor="none" style="mix-blend-mode: normal"><g transform="translate(0,0.00021) scale(10.66667,10.66667)"><path d="M14.09,16h0.91c6.643,0 9,-3.5 9,-6.5c-0.00202,-1.67692 -1.19316,-3.11678 -2.84,-3.433c0.16,-0.32316 0.29668,-0.65734 0.409,-1c0.35405,-1.18658 0.12156,-2.47085 -0.626,-3.458c-0.75426,-1.01722 -1.94767,-1.61466 -3.214,-1.609h-11.458c-1.26687,-0.00496 -2.46038,0.59365 -3.214,1.612c-0.74756,0.98715 -0.98005,2.27142 -0.626,3.458c0.11232,0.34266 0.249,0.67684 0.409,1c-1.64573,0.316 -2.83655,1.75421 -2.84,3.43c0,3 2.357,6.5 9,6.5h0.91c0.05825,0.30358 0.08838,0.61189 0.09,0.921v3.079c0.03476,0.54034 -0.16476,1.0695 -0.54763,1.45237c-0.38287,0.38287 -0.91202,0.58239 -1.45237,0.54763h-2c-0.55228,0 -1,0.44772 -1,1c0,0.55228 0.44772,1 1,1h12c0.55228,0 1,-0.44772 1,-1c0,-0.55228 -0.44772,-1 -1,-1h-1.994c-0.54117,0.0359 -1.07159,-0.16304 -1.45567,-0.54598c-0.38408,-0.38293 -0.58461,-0.91275 -0.55033,-1.45402v-3.08c0.00167,-0.30878 0.0318,-0.61675 0.09,-0.92zM15.726,13.149c1.71346,-1.51793 3.1958,-3.27821 4.4,-5.225c0.11863,0.04911 0.24561,0.07491 0.374,0.076c0.82843,0 1.5,0.67157 1.5,1.5c0,2.176 -1.839,4.5 -7,4.5h-0.056c0.22548,-0.3141 0.48804,-0.59983 0.782,-0.851zM9,14c-5.161,0 -7,-2.324 -7,-4.5c0,-0.82843 0.67157,-1.5 1.5,-1.5c0.12873,-0.00096 0.25606,-0.02677 0.375,-0.076c1.2042,1.94679 2.68654,3.70707 4.4,5.225c0.29361,0.25123 0.55583,0.53696 0.781,0.851z"></path></g></g></svg>