<svg version="1.1" xmlns="http://www.w3.org/2000/svg" xmlns:xlink="http://www.w3.org/1999/xlink" width="800px" height="800px" viewBox="0,0,256,256"><g fill="#ffffff" fill-rule="none" stroke="none" stroke-width="1" stroke-linecap="butt" stroke-linejoin="miter" stroke-miterlimit="10" stroke-dasharray="" stroke-dashoffset="0" font-family="none" font-weight="none" font-size="none" text-anchor="none" style="mix-blend-mode: normal"><g transform="translate(-5.32904,-5.33573) scale(10.66667,10.66667)"><path d="M15.6982,3.7536c0.931,-0.45471 1.9669,-0.70945 2.8301,-0.29209c0.4601,0.22248 0.7784,0.59513 0.971,1.03872c0.175,0.40299 0.2463,0.86141 0.2504,1.33553c0.0035,0.3986 -0.0404,0.82915 -0.1245,1.28206c-0.127,0.68464 -0.3474,1.42888 -0.6437,2.20489c-0.031,0.08123 -0.0746,0.15396 -0.1277,0.21681c0.1853,0.06254 0.366,0.12686 0.5421,0.19286l0.0016,0.00061c0.0467,0.01753 0.0979,0.03701 0.1438,0.05471c0.1334,0.05149 0.2639,0.10395 0.3915,0.15734c0.3259,0.13646 0.6324,0.27896 0.917,0.42686c0.2926,0.152 0.5657,0.3114 0.8157,0.478c0.8622,0.5745 1.6047,1.3405 1.6797,2.2963c0.04,0.5095 -0.1212,0.9723 -0.4071,1.3624c-0.2597,0.3543 -0.6195,0.6472 -1.0268,0.8899c-0.3424,0.204 -0.7364,0.3833 -1.1698,0.5392c-0.6553,0.2356 -1.409,0.4208 -2.2285,0.5564c-0.4087,0.0676 -0.7948,-0.2088 -0.8624,-0.6175c-0.0677,-0.4087 0.2088,-0.7948 0.6175,-0.8624c0.5618,-0.093 1.0657,-0.2075 1.5068,-0.3382l0.0051,-0.0016c0.566,-0.168 1.0217,-0.3608 1.3635,-0.5645c0.2943,-0.1753 0.4792,-0.3439 0.5848,-0.488c0.1053,-0.1437 0.1295,-0.257 0.1215,-0.3583c-0.0185,-0.236 -0.247,-0.653 -1.0161,-1.1654c-0.1986,-0.1324 -0.424,-0.2646 -0.6754,-0.3952l-1.2963,-0.5689c-1.7529,-0.6561 -4.1008,-1.15806 -6.6855,-1.33839c-0.3208,-0.02238 -0.637,-0.03924 -0.9481,-0.05079c-0.4164,0.52628 -0.8275,1.08458 -1.2269,1.67028c-0.74368,1.0909 -1.3685,2.163 -1.86544,3.1692c0.31469,0.1792 0.46145,0.5655 0.32989,0.9153c-0.14277,0.3796 -0.56038,0.5755 -0.94168,0.4467c-0.2262,0.5627 -0.40449,1.0935 -0.53289,1.5821c-0.01352,0.0514 -0.02643,0.1022 -0.03875,0.1523l-0.00221,0.0093c-0.19556,0.7989 -0.23856,1.4249 -0.16991,1.8617c0.02664,0.1696 0.06658,0.2951 0.11263,0.3886c0.07033,0.1425 0.15491,0.2108 0.22746,0.2467l0.00391,0.0019c0.04326,0.0209 0.09662,0.0386 0.16363,0.0495c0.12258,0.0201 0.29067,0.0177 0.51193,-0.03c0.39976,-0.0861 0.90675,-0.3053 1.50094,-0.6777c0.13725,-0.086 0.27792,-0.1794 0.42165,-0.28c0.23963,-0.1679 0.48704,-0.3553 0.74044,-0.5617l1.1754,-0.9551c0.3215,-0.2612 0.7938,-0.2123 1.055,0.1091c0.2612,0.3215 0.2124,0.7939 -0.1091,1.0551l-1.1743,0.9542c-0.2787,0.2269 -0.555,0.4365 -0.827,0.627c-0.1632,0.1143 -0.3252,0.222 -0.4856,0.3225c-0.67755,0.4246 -1.3504,0.737 -1.98152,0.873c-0.35636,0.0767 -0.71913,0.1015 -1.0706,0.0439c-0.19701,-0.0323 -0.39006,-0.0905 -0.57384,-0.1794l-0.01634,-0.008c-0.72948,-0.3611 -1.06549,-1.0731 -1.1674,-1.8207c-0.10099,-0.7409 0.00573,-1.6232 0.25284,-2.5635c0.14052,-0.5346 0.3309,-1.1047 0.56798,-1.7005l-0.50676,-0.1789c-0.33652,-0.1262 -0.65689,-0.259 -0.95856,-0.3977c-0.18107,-0.0833 -0.35574,-0.1689 -0.52344,-0.2567c-0.70834,-0.3709 -1.31752,-0.7943 -1.75327,-1.2706c-0.24605,-0.269 -0.45043,-0.5697 -0.57795,-0.9023c-0.07147,-0.1864 -0.11859,-0.3825 -0.13456,-0.586l-0.00134,-0.0181c-0.0562,-0.812 0.38912,-1.4613 0.98327,-1.92643c0.5888,-0.46093 1.40443,-0.8138 2.34096,-1.07472c1.48755,-0.41443 3.40989,-0.63214 5.55173,-0.6077c1.0134,-1.21481 2.0588,-2.2629 3.0598,-3.07795l0.0013,-0.0011c0.0387,-0.03145 0.0814,-0.0659 0.1198,-0.09656c0.1117,-0.08921 0.2229,-0.17545 0.3333,-0.25864c0.2822,-0.21263 0.5599,-0.40531 0.8311,-0.57649c0.2789,-0.17598 0.5543,-0.33139 0.8242,-0.46321zM12.4458,8.31129c1.8259,0.1371 3.5641,0.42899 5.0903,0.8334c-0.0142,-0.11705 -0.0009,-0.23917 0.0441,-0.35698c0.2031,-0.53202 0.3584,-1.02488 0.468,-1.47175l0.0013,-0.00516c0.1404,-0.57347 0.2037,-1.06419 0.2003,-1.46203c-0.003,-0.34257 -0.0553,-0.58728 -0.1264,-0.75116c-0.0709,-0.16335 -0.1566,-0.24144 -0.2481,-0.28568c-0.2131,-0.10307 -0.6884,-0.11608 -1.5188,0.2895c-0.2145,0.10475 -0.4424,0.2327 -0.6819,0.38388l-1.1451,0.83237c-0.6697,0.54588 -1.3749,1.21778 -2.0837,1.99361zM9.34834,9.73983c-1.54832,0.05188 -2.90564,0.2442 -3.9688,0.54037c-0.05123,0.0143 -0.10159,0.0288 -0.15108,0.0434l-0.0091,0.0028c-0.78851,0.2341 -1.35066,0.5127 -1.69322,0.7923c-0.13298,0.1086 -0.22124,0.2064 -0.27875,0.2933c-0.08755,0.1326 -0.10382,0.2401 -0.09823,0.3208l0.00032,0.0044c0.00376,0.0479 0.01542,0.1029 0.03973,0.1663c0.04447,0.1159 0.1314,0.2598 0.28417,0.4268c0.27601,0.3018 0.72103,0.629 1.34225,0.9542c0.14348,0.0751 0.29508,0.1495 0.4545,0.2228c0.26579,0.1223 0.55246,0.2413 0.85843,0.356l0.58869,0.2078c0.54586,-1.1255 1.23357,-2.3107 2.04489,-3.5008c0.19241,-0.2823 0.38802,-0.5593 0.5862,-0.83047z" fill-rule="evenodd"></path><path d="M11.7647,14.2813c-0.0138,-0.9104 -0.0206,-1.3656 0.2664,-1.5313c0.287,-0.1657 0.6778,0.0678 1.4594,0.5349l0.2022,0.1209c0.2221,0.1327 0.3331,0.199 0.4554,0.2145c0.1224,0.0155 0.2421,-0.0217 0.4817,-0.0961l0.2181,-0.0677c0.8429,-0.2618 1.2644,-0.3927 1.5177,-0.1587c0.2534,0.234 0.1708,0.6779 0.0057,1.5657l-0.0427,0.2297c-0.0469,0.2523 -0.0704,0.3784 -0.0426,0.5017c0.0279,0.1232 0.1038,0.2296 0.2558,0.4423l0.1383,0.1937c0.5347,0.7486 0.802,1.1229 0.6716,1.4332c-0.1304,0.3104 -0.5723,0.3512 -1.4559,0.4328l-0.2286,0.0211c-0.2511,0.0232 -0.3766,0.0348 -0.4818,0.0955c-0.1051,0.0607 -0.1779,0.1636 -0.3235,0.3695l-0.1326,0.1874c-0.5125,0.7244 -0.7688,1.0867 -1.1027,1.0444c-0.334,-0.0422 -0.5245,-0.4608 -0.9055,-1.2982l-0.0985,-0.2166c-0.1083,-0.238 -0.1624,-0.357 -0.2552,-0.4427c-0.0929,-0.0857 -0.2138,-0.1285 -0.4558,-0.214l-0.2202,-0.0778c-0.8515,-0.3009 -1.2772,-0.4514 -1.3531,-0.7878c-0.076,-0.3364 0.2481,-0.6359 0.8962,-1.2351l0.1677,-0.155c0.1842,-0.1702 0.2763,-0.2554 0.3241,-0.369c0.0477,-0.1137 0.0458,-0.2431 0.0419,-0.5018z" fill-rule="nonzero"></path></g></g></svg>