<svg version="1.1" xmlns="http://www.w3.org/2000/svg" xmlns:xlink="http://www.w3.org/1999/xlink" width="176px" height="176px" viewBox="0,0,256,256"><g fill="#ffffff" fill-rule="none" stroke="none" stroke-width="1" stroke-linecap="butt" stroke-linejoin="miter" stroke-miterlimit="10" stroke-dasharray="" stroke-dashoffset="0" font-family="none" font-weight="none" font-size="none" text-anchor="none" style="mix-blend-mode: normal"><g transform="translate(6.16159,-4.09394) scale(10.66667,10.66667)"><path d="M17.8457,15.5715c0.1012,-0.5081 0.1543,-1.0336 0.1543,-1.5715c0,-0.7633 -0.1069,-1.5016 -0.3065,-2.2008l-0.7378,-0.0454h-0.0011l-0.0064,-0.0003c-0.0076,-0.0004 -0.0206,-0.0009 -0.0389,-0.0015c-0.0366,-0.0011 -0.0942,-0.0022 -0.1709,-0.002c-0.1535,0.0006 -0.3832,0.0069 -0.6741,0.0306c-0.5825,0.0475 -1.4059,0.1646 -2.3529,0.4428c-0.1943,0.0571 -0.4191,0.1608 -0.7253,0.3158c-0.0608,0.0308 -0.1246,0.0635 -0.1912,0.0976c-0.2508,0.1286 -0.5412,0.2775 -0.8536,0.4174c-0.8132,0.3642 -1.8309,0.6958 -3.15684,0.6958c-1.89344,0 -3.45375,-0.5394 -4.53715,-1.0751c-0.5425,-0.2683 -0.96942,-0.5375 -1.26395,-0.7424c-0.14743,-0.1025 -0.26221,-0.1893 -0.34223,-0.2523c-0.04003,-0.0315 -0.07141,-0.0571 -0.09389,-0.0758l-0.02703,-0.0227l-0.00846,-0.0072l-0.00296,-0.0026l-0.00115,-0.001c0,0 -0.00095,-0.0008 0.48449,-0.5567l-0.48544,0.5559l-0.10203,-0.0891c-0.26254,0.792 -0.40466,1.6389 -0.40466,2.519c0,0.4306 0.03403,0.8533 0.09954,1.2655l0.36971,-0.0151l0.03075,0.7493c-0.03075,-0.7493 -0.03075,-0.7493 -0.03075,-0.7493l0.00133,-0.0001l0.0021,-0.0001l0.00649,-0.0002l0.02199,-0.0007c0.01859,-0.0006 0.04498,-0.0013 0.07867,-0.002c0.06735,-0.0013 0.16397,-0.0024 0.28581,-0.0018c0.24349,0.0012 0.5888,0.0093 1.00345,0.0365c0.82574,0.0543 1.94356,0.1857 3.08615,0.4985c0.35619,0.0975 0.70853,0.2562 1.03739,0.4113c0.07734,0.0365 0.15398,0.0731 0.23062,0.1096c0.26492,0.1265 0.53022,0.2531 0.82514,0.3761c0.73884,0.3083 1.61771,0.5725 2.77091,0.5725c2.1413,0 4.3312,-0.8645 5.3197,-1.4074l0.6573,-0.361z" fill-rule="nonzero"></path><path d="M17.2024,17.4864c-1.2735,0.5843 -3.3167,1.2636 -5.3831,1.2636c-1.4041,0 -2.48246,-0.3268 -3.34847,-0.6881c-0.3332,-0.139 -0.64245,-0.2867 -0.91159,-0.4152c-0.07179,-0.0343 -0.14077,-0.0672 -0.20655,-0.0983c-0.32828,-0.1548 -0.57592,-0.2616 -0.79347,-0.3212c-1.01398,-0.2775 -2.02477,-0.3982 -2.78851,-0.4484c-0.38008,-0.025 -0.69473,-0.0322 -0.9125,-0.0333c-0.10879,-0.0006 -0.19314,0.0005 -0.24909,0.0015c-0.02796,0.0006 -0.04881,0.0012 -0.06204,0.0016l-0.01407,0.0004l-0.00226,0.0001l-0.0452,0.0019c1.12168,3.063 4.06278,5.249 7.51445,5.249c3.1685,0 5.9068,-1.842 7.2024,-4.5136z" fill-rule="nonzero"></path><path d="M3.04319,10.0472l0.44883,0.3919l0.00109,0.0009l0.01267,0.0107c0.01269,0.0105 0.03381,0.0278 0.06308,0.0508c0.05858,0.0461 0.14963,0.1152 0.27105,0.1996c0.24318,0.1692 0.60613,0.3987 1.07224,0.6292c0.93384,0.4617 2.26575,0.9197 3.87231,0.9197c1.05625,0 1.86184,-0.2594 2.54374,-0.5648c0.2727,-0.1222 0.5174,-0.2475 0.7639,-0.3738c0.0717,-0.0367 0.1436,-0.0736 0.2163,-0.1104c0.306,-0.1549 0.6401,-0.3168 0.9802,-0.4167c1.0619,-0.3121 1.9885,-0.4444 2.6538,-0.4987c0.333,-0.0272 0.6016,-0.0348 0.7904,-0.0355c0.0945,-0.0004 0.1691,0.001 0.2219,0.0026c0.0264,0.0008 0.0474,0.0016 0.0627,0.0024l0.0186,0.0009l0.0061,0.0003l0.0022,0.0002h0.0013c0,0 0.0004,0.0001 -0.0455,0.7472l0.0455,-0.7472l0.0272,0.0017c-1.3428,-2.53287 -4.0063,-4.2582 -7.0728,-4.2582c-2.98055,0 -5.58041,1.62997 -6.95681,4.0472z" fill-rule="nonzero"></path><path d="M20.53,4.04472c-0.0366,-0.0941 -0.0808,-0.18662 -0.1329,-0.27677c-0.052,-0.09015 -0.11,-0.17472 -0.1732,-0.25349c0.3263,-0.09075 0.5486,-0.0964 0.6062,0.00349c0.0577,0.09989 -0.0583,0.2895 -0.3001,0.52677zM17.1063,6.02144c-0.3264,0.09075 -0.5486,0.0964 -0.6063,-0.00349c-0.0577,-0.09989 0.0583,-0.28951 0.3001,-0.52678c0.0366,0.09411 0.0809,0.18663 0.1329,0.27678c0.0521,0.09015 0.1101,0.17472 0.1733,0.25349zM17.1063,6.02144c0.455,-0.12652 1.1125,-0.41847 1.8088,-0.82048c0.6963,-0.40201 1.2778,-0.82543 1.6149,-1.15624c0.352,0.90441 0.0015,1.95504 -0.8649,2.45528c-0.8665,0.50024 -1.9516,0.27849 -2.5588,-0.47856zM16.8001,5.49117c-0.352,-0.9044 -0.0015,-1.95504 0.865,-2.45527c0.8664,-0.50024 1.9515,-0.2785 2.5588,0.47856c-0.455,0.12652 -1.1125,0.41847 -1.8088,0.82048c-0.6963,0.40201 -1.2779,0.82543 -1.615,1.15623z" fill-rule="evenodd"></path></g></g></svg>