<svg version="1.1" xmlns="http://www.w3.org/2000/svg" xmlns:xlink="http://www.w3.org/1999/xlink" width="800px" height="800px" viewBox="0,0,256,256"><g fill="#ffffff" fill-rule="nonzero" stroke="none" stroke-width="1" stroke-linecap="butt" stroke-linejoin="miter" stroke-miterlimit="10" stroke-dasharray="" stroke-dashoffset="0" font-family="none" font-weight="none" font-size="none" text-anchor="none" style="mix-blend-mode: normal"><g transform="translate(0,-0.20211) scale(10.66667,10.66667)"><path d="M19.828,2.172c1.56153,1.562 1.56153,4.094 0,5.656c-0.39238,0.37897 -1.01608,0.37355 -1.40182,-0.01218c-0.38573,-0.38573 -0.39115,-1.00944 -0.01218,-1.40182c0.78076,-0.781 0.78076,-2.047 0,-2.828c-0.79117,-0.75581 -2.03683,-0.75581 -2.828,0c-0.39238,0.37897 -1.01608,0.37355 -1.40182,-0.01218c-0.38573,-0.38573 -0.39115,-1.00944 -0.01218,-1.40182c1.58213,-1.51214 4.07387,-1.51214 5.656,0zM7.828,12.239c-1.36223,-2.34559 -0.98136,-5.31339 0.929,-7.239l0.707,-0.707c0.3905,-0.39038 1.0235,-0.39038 1.414,0l7.072,7.071c0.39038,0.3905 0.39038,1.0235 0,1.414l-0.707,0.707c-1.12461,1.12594 -2.65162,1.75719 -4.243,1.754c-0.33551,-0.00582 -0.66998,-0.03927 -1,-0.1v5.861h8c0.55228,0 1,0.44772 1,1c0,0.55228 -0.44772,1 -1,1h-16c-0.55228,0 -1,-0.44772 -1,-1c0,-0.55228 0.44772,-1 1,-1h2v-6c0.00041,-1.20396 0.72054,-2.29105 1.829,-2.761zM10.17,12.071c1.56382,1.559 4.09418,1.559 5.658,0l-5.657,-5.657c-1.55889,1.56348 -1.55889,4.09352 0,5.657zM8,21h2v-6c0,-0.55228 -0.44772,-1 -1,-1c-0.55228,0 -1,0.44772 -1,1z"></path></g></g></svg>