<svg xmlns="http://www.w3.org/2000/svg" xmlns:xlink="http://www.w3.org/1999/xlink" width="1080" zoomAndPan="magnify" viewBox="0 0 810 809.999993" height="1080" preserveAspectRatio="xMidYMid meet" version="1.0"><path fill="#cdf3f4" d="M 288.402344 167.015625 L 186.914062 268.199219 C 168.261719 286.796875 151.148438 303.859375 137.636719 319.28125 C 128.957031 329.183594 120.285156 340.023438 112.9375 352 L 111.949219 351.015625 C 110.074219 349.144531 109.132812 348.207031 108.191406 347.292969 C 90.550781 330.175781 69.800781 316.570312 47.054688 307.195312 C 45.835938 306.695312 44.605469 306.207031 42.136719 305.230469 L 27.027344 299.242188 C 6.554688 291.128906 1.101562 264.777344 16.675781 249.25 C 61.378906 204.679688 115.050781 151.171875 140.953125 140.421875 C 163.796875 130.945312 188.476562 127.789062 212.277344 131.308594 C 234.082031 134.53125 254.714844 145.734375 288.402344 167.015625 Z M 288.402344 167.015625 " fill-opacity="1" fill-rule="nonzero"/><path fill="#cdf3f4" d="M 461.691406 699.773438 C 469.871094 708.070312 475.300781 713.933594 480.214844 720.199219 C 486.691406 728.464844 492.484375 737.246094 497.53125 746.449219 C 503.214844 756.8125 507.628906 767.882812 516.457031 790.023438 C 523.640625 808.050781 547.511719 812.8125 561.375 798.992188 L 564.726562 795.648438 C 609.429688 751.074219 663.101562 697.566406 673.878906 671.742188 C 683.386719 648.964844 686.546875 624.359375 683.019531 600.632812 C 679.789062 578.890625 668.558594 558.328125 647.214844 524.746094 L 545.386719 626.269531 C 526.308594 645.289062 508.816406 662.730469 493 676.390625 C 483.515625 684.578125 473.144531 692.765625 461.691406 699.773438 Z M 461.691406 699.773438 " fill-opacity="1" fill-rule="nonzero"/><path fill="#cdf3f4" d="M 504.390625 582.59375 L 737.714844 349.96875 C 771.320312 316.46875 788.121094 299.71875 796.96875 278.417969 C 805.820312 257.117188 805.820312 233.425781 805.820312 186.050781 L 805.820312 163.414062 C 805.820312 90.558594 805.820312 54.132812 783.117188 31.5 C 760.417969 8.867188 723.878906 8.867188 650.808594 8.867188 L 628.105469 8.867188 C 580.585938 8.867188 556.824219 8.867188 535.460938 17.691406 C 514.09375 26.511719 497.292969 43.265625 463.691406 76.765625 L 230.363281 309.390625 C 191.101562 348.535156 166.753906 372.8125 157.328125 396.257812 C 154.347656 403.664062 152.859375 410.988281 152.859375 418.671875 C 152.859375 450.679688 178.695312 476.441406 230.363281 527.957031 L 237.308594 534.878906 L 318.660156 452.316406 C 330.261719 440.539062 349.210938 440.402344 360.984375 452 C 372.757812 463.601562 372.898438 482.554688 361.296875 494.332031 L 279.699219 577.144531 L 285.171875 582.59375 C 336.84375 634.113281 362.675781 659.871094 394.78125 659.871094 C 401.875 659.871094 408.660156 658.613281 415.488281 656.097656 C 439.566406 647.230469 464.140625 622.730469 504.390625 582.59375 Z M 614.007812 309.410156 C 583.738281 339.585938 534.664062 339.585938 504.398438 309.410156 C 474.128906 279.230469 474.128906 230.304688 504.398438 200.128906 C 534.664062 169.949219 583.738281 169.949219 614.007812 200.128906 C 644.277344 230.304688 644.277344 279.230469 614.007812 309.410156 Z M 614.007812 309.410156 " fill-opacity="1" fill-rule="evenodd"/></svg>